/* XPM */
static char *_1a827f953ca422fb050607ea7fe6d12STSy3AYp9vMVBiOw[] = {
/* columns rows colors chars-per-pixel */
"64 64 80 1 ",
"  c #59413E",
". c #58413F",
"X c #564141",
"o c #544043",
"O c #514047",
"+ c #524046",
"@ c #534147",
"# c #544044",
"$ c #544145",
"% c #584242",
"& c #5A4343",
"* c #5D4340",
"= c #5E4442",
"- c #5B4447",
"; c #5D4445",
": c #5D4545",
"> c #544148",
", c #564248",
"< c #584349",
"1 c #584449",
"2 c #5A4448",
"3 c #5F4649",
"4 c #5F474B",
"5 c #604441",
"6 c #624642",
"7 c #644743",
"8 c #624747",
"9 c #654844",
"0 c #684945",
"q c #694A47",
"w c #6C4B47",
"e c #604749",
"r c #624849",
"t c #66494A",
"y c #65494C",
"u c #654A4C",
"i c #674B4D",
"p c #684A4A",
"a c #6A4C4B",
"s c #6E4C48",
"d c #6C4C4B",
"f c #6F4D4A",
"g c #684B4D",
"h c #694C4D",
"j c #6D4D4D",
"k c #714E49",
"l c #734F4A",
"z c #724F4B",
"x c #744F4B",
"c c #734F4C",
"v c #76504B",
"b c #74504C",
"n c #77514C",
"m c #77514E",
"M c #78524D",
"N c #7A524D",
"B c #79524E",
"V c #7C544F",
"C c #7D544F",
"Z c #725050",
"A c #775250",
"S c #765251",
"D c #7E5550",
"F c #7F5550",
"G c #7F5653",
"H c #805650",
"J c #805652",
"K c #835852",
"L c #855853",
"P c #865953",
"I c #845854",
"U c #855955",
"Y c #865954",
"T c #885A54",
"R c #8A5B55",
"E c #8A5B56",
"W c #8B5C56",
"Q c #8C5C56",
"! c #8C5D57",
"~ c #8D5D57",
/* pixels */
"OO,3aznnnnnnnnnnnnnnnncpe,OOOOOOOO,egcxMnnnnnnnnnnnnvMzpe&OOOOOO",
"OO,3pznnnnnnnnnnnnnnnnxpe,OOOOOOOO,3pxMxnnnnnnnnnnnnMMzpe#O@OOOO",
",,2rtxnnnnnnnnnnnnnnnnxdye,,@O@@,@23wxMnnnnnnnnnnnnnMbcfi22,,OOO",
"33rpzvnnnnnnnnnnnnnnnnxxggye2@@,243idxnnnnnnnnnnnnnnMbzcjii4,@OO",
"papfbbnnnnnnnnnnnnnnnMMMBSZi4,@2ei0kxxAMnnnnnnnnnnnnnnMvSSZi4,@O",
"zzzvbbnnnnnnnnnnnnnnnnNNFYGZy2,3tjxxxxMMnnnnnnnnnnnnnnMCJYGZi,OO",
"vMvMMnnnnnnnnnnnnnnnMnnHYEYSi2,3pxnnnnbMnnnnnnnnnnnnnnCHYEUSi,OO",
"MvMvbMnnnnnnnnnnnnnnMxNHYTYSi,,4pcnnnnnMnnnnnnnnnnnnnnnHYEYSi,OO",
"nnnnnnnnnnnnnnnnvMvMvMNHI!ISi1,3pcbnnnnnnnnnnnnnnnnnnMnHYYYSi<@@",
"nnnnnnnnnnnnnnnnMvMvMvMHI!YSi1,3pxxMnnnnnnnnnnnnnnnnxnNHYEYSi,OO",
"nnnnnnnnnnnnnnnnvMvMvMMHIYYSi1,3txMnnnnnnnnnnnnnnnnnMnNJYYYSi,OO",
"nnnnnnnnnnnnnnnnMvMvMvNJY!ISi1,3axnMnnnnnnnnnnnnnnnnnnMHYEYSi,OO",
"nnnnnnnnnnnnnnnnvMvMvvMJYYYSi1,3azMnnnnnnnnnnnnnnnnnMMMHYEUSi1>>",
"nnnnnnnnnnnnnnnnMvMvMMMJIYYSi1,3pzbMnnnnnnnnnnnnnnnnMxMJIEUSi1OO",
"nnnnnnnnnnnnnnnnvMvMvMAJYEYSi1,3abvbnnnnnnnnnnnnnnnnMxSDYYUSi1OO",
"nnnnnnnnnnnnnnnnMvMvMvbDY!USi1,30vvbnnnnnnnnnnnnnnnnMMMDY!USi,OO",
"nnnnnnnnvnnnnnnnnnnnnnBHYYYSi2,3pxnnnnnnnnnnnvnnnnnnnnNJLEYSi,>O",
"nnnnnnnnvBnnnnnnnnnBnnBHYWYSi1,3pxnnnnnnnnnnnnnnnnnnnnNJLEYSg2OO",
"nnnnnnnnvvnvnnnnnnnnnBNTYWYSi1,3pvnnnnnnnnnnvnnnnnnnxMnHLELSg,OO",
"nnnnnnnnNvnnnnnnnnnNBnHYYQYSi1,3pxnnnnnnnnnnnnnnnnnNFHJYTQYSi2OO",
"nnnnnnnnnnnnnnMnnnnFTJTTWQYSi2,3dcxxnnvvnnnnnMnnnnnNTYYTW!YSi1>O",
"nnnnnnnnnnnnnnnnnnnFLTEEQEYSi,,epxnnnnBvnnnnnMnnnnnHHTQQ!!YSi2OO",
"xxxnMMMMNNnnNNNAnNBHTQQQEYJZi,#eyknnNnNnnNNNNNMANnNHTQQQYYDZi,OO",
"wwsxMNHHHHHHHHNJHHHYTQETJDbh3,,2e0wxNNHHHHHHNJJDLHHYTTQYJDbi4>OO",
"770zMJYLLLLLLYYLYYTTEQEJnc77eO#&;80cxJYYLYYLPYYYYPTTQQEJMb97e,OO",
" 56wMLEEEEEEEEEETEEEEETFc7=;##O#. 7wMYEEELETEEEEETEEQQPFc76X#@OO",
" X=0zJPPPTELTYTTTETYYYJxp X#oO#o..=pMJTYEEPTPEEEPPTTPYJx9:&oOOOO",
"XX=7zxMnAMMMNMMMBnnnBHxw7=###OOO##&7wxMnMMMMMxxMAMSMMMxw9&ooOOOO",
"##&:rpwwwwwwwwwwpwwwwwp7:=OOOOOOoO&:70wwwwwwwwwwwwwwwwpe;&#O##OO",
"OO##&=66555755555556555.#@OOO#OOO@@#&;5557555555555556 7OXOOOOOO",
"#OO#& = = =  5 5==* 5=*.#@@OOOOOOOO#o==== 5  6 5= 5= =&XXOOOOOOO",
"OOO&:699777797977767678;&,OOOOOOOO#&;777777777777777776e&#OOOOOO",
"OO,277wwwwwwwwwwwwwww0pe1>OOOOOOOO,2e7c79f00wwwww0wwww972OOOOOOO",
"OO,;psxnlnsxxxxxzxxxxzci3,O>OOOOOO#epkcnvvnvbvvvzbzzbvzte#O>OOOO",
",,3ekcnnnnnnnnnnnnnnxMxwr3,,OOOO#@2ewnxnnnnnvvbnnnnnbMbft22,OOOO",
"33epdxnnnnnnnnnnnnnnnnxxjii31,>,333pcxxMnnnnvvMnnnnnbbvvjhi32>OO",
"pgazxnnxnnnnnnnnnnnnMMMMSSZi4,>23ttzccbMnnnnnnnnnnnnnnnnSSZi4,OO",
"xfzzxnxnnnnnnnnnnnnnMxMMDYIZi1,3tzxxccMMnnnnnnnnnnnnnnnCGIGZi1OO",
"nnxnnnnnnnnnnnnnnnnnMMMDYWISi1,3pzvMvMvMnnnnnnnnnnnnnnnHYYISi1OO",
"nMMxnnnnnnnnnnnnnnnnxMMDYYYSi,,3pzMvMvMvnnnnnnnnnnnnnnNHYWYSi,OO",
"nnnnnnnnnnnnnnnnnnnnnnnHYYYSi1,3azvvnnnnnnnnnnnnnnnnMnMHYEYSi1>O",
"nnnnnnnnnnnnnnnnnnnnnnMHIWYSh,,3pvbbnnnnnnnnnnnnnnnnnnNHYWYSi2OO",
"nnnnnnnnnnnnnnnnnnnnnnNHYWYSi1,3tbMMnnnnnnnnnnnnnnnnnnnHYYYSi1OO",
"nnnnnnnnnnnnnnnnnnnnnnnHIWYSi1,4avMvnnnnnnnnnnnnnnnnnnMHYYYSi,OO",
"nnnnnnnnnnnnnnnnnnnnnnnHIYYSi1,3pbnnnnnnnnnnnnnnnnnnMxNJYUUSi1>>",
"nnnnnnnnnnnnnnnnnnnnnnNHY!YSi1,39bnMnnnnnnnnnnnnnnnnMMNJI!USi1OO",
"nnnnnnnnnnnnnnnnnnnnxnNHIYYSi1,3azvbnnnnnnnnnnnnnnnnMbbDYYYSi1OO",
"nnnnnnnnnnnnnnnnnnnnMnNHIWISi1,3abvbnnnnnnnnnnnnnnnnMMADY!ISi,OO",
"nnnnnnnnnnnnnnnnnnnnnnMHLEPSi1,3pxnnnnnnnnnnvnnnnnnnnnMHTTYSi,>O",
"nnnnnnnnnnnnnnnnnnnnnnMHLEPSi1,3pxnnnnnnnnnnnnvnnnnnnMNHPEYSi2OO",
"nnnnnnnnnnnnnnnnnnMMMMNJPEYSi2,3pxnnnnnnnnnnnvnnnnnnMMNJPQPSh,OO",
"nnnnnnnnnnnnnnnnMMMNNJPPTEYSi,,3pxnnnnnvnnnnnnnnnMMNNJJLTEYSi2OO",
"nnMvMvnnnnnMnnnnnnMNJJPTTQYSi,,3dcxnvBvvnnnnnnnnnnNNJPLTW!YSi1>O",
"nnvvvMnnnMxnnnnnnnNHPEQQWQYSi2,3pxnnvvvBnnnnMnnnnnNNLEQQ!!YSi1OO",
"xvzvMMMMNNMnNMNNMMMJPEQQEEDSi2,3tcxnvBvNNNNNMnAMNnNJPQQQYYDZi,OO",
"wwwvMNJHHJHHHHHHHHJPPWETYMxh3,>2e0wxBHHHHHHHHHJDHHLLTTQPJDci4,OO",
"770kMFYYLLLYYLPLPYYEEETJMz03&,O&;50cnJLLLLYLPYYYYPTTQQEJMb97;,>O",
"5 5wAYEEEQEPEEEEETEEQQEDz76&##O#&&7wnYEEEEEEEYEEETEEQQYDb66&O#OO",
" .=0xJEYLTTEYEPPEPYYTTJx0  ##,Ooo  gMJELEYPEPEEEPPETEPJb96XoOOOO",
"#.;twxNnnNMMMMMMMAMMMMxwt:#XOOOOoo=7wxMMMMMMMbxMAMAMMbbwr&ooOOOO",
"##&;7p0wwwwwwwwwwwwwwwp7:OXO#@@O#o#;70wwwwwwwwwwwwwwww07:#XO#OOO",
"#@##&=55555555555555555X&o#OOOOOOO#&&;5555555555555555 :&#O#OOOO",
"OO,O..                 .oOOOOOOOOOOoo                  XOOOOOOOO",
"OOO##.                X&oOOOOOOOOOOo.&               &XXX#OOOOOO"
};
