/* XPM */
static char *bb7fe85fb9204cf1b87d5aee206d0ffabWSkCWrxot5j8Vpl[] = {
/* columns rows colors chars-per-pixel */
"16 16 4 1 ",
"  c #59413E",
". c #514047",
"X c #77514C",
"o c #8D5D57",
/* pixels */
".XXXXX...XXXXX..",
"XXXXXXo.XXXXXXo.",
"XXXXXXo.XXXXXXo.",
"XXXXXXo.XXXXXXo.",
"XXXXXXo.XXXXXXo.",
"XXXXXoo.XXXXXoo.",
" ooooo . ooooo .",
".     ...     ..",
".XXXXX...XXXXX..",
"XXXXXXo.XXXXXXo.",
"XXXXXXo.XXXXXXo.",
"XXXXXXo.XXXXXXo.",
"XXXXXXo.XXXXXXo.",
"XXXXXoo.XXXXXoo.",
" ooooo . ooooo .",
".     ...     .."
};
