/* XPM */
static char *_c94b142ff9041ccff0aecbcb38b6d1e3kXWI9N1NmR7kdtE[] = {
/* columns rows colors chars-per-pixel */
"64 64 103 2 ",
"   c #353E50",
".  c #374053",
"X  c #374153",
"o  c #384154",
"O  c #394255",
"+  c #3A4357",
"@  c #3A4457",
"#  c #3A4458",
"$  c #3B4458",
"%  c #3C4559",
"&  c #3C465A",
"*  c #3C475B",
"=  c #3D475B",
"-  c #3E495D",
";  c #3E495E",
":  c #3F495E",
">  c #404B60",
",  c #404B61",
"<  c #404C61",
"1  c #414C62",
"2  c #414D62",
"3  c #424E64",
"4  c #434E65",
"5  c #434F65",
"6  c #434F66",
"7  c #444F67",
"8  c #455065",
"9  c #445066",
"0  c #445067",
"q  c #455269",
"w  c #465268",
"e  c #46526A",
"r  c #46536A",
"t  c #48536A",
"y  c #48546A",
"u  c #48546B",
"i  c #48556C",
"p  c #4A556D",
"a  c #49566D",
"s  c #49566F",
"d  c #4B566E",
"f  c #4A5770",
"g  c #4B5770",
"h  c #4B5870",
"j  c #4C5973",
"k  c #4D5A73",
"l  c #4D5A74",
"z  c #4D5B75",
"x  c #4F5B74",
"c  c #4E5B76",
"v  c #4F5C75",
"b  c #4F5D78",
"n  c #505D75",
"m  c #505E77",
"M  c #515E78",
"N  c #515F78",
"B  c #515E7A",
"V  c #515F7B",
"C  c #52607A",
"Z  c #53617B",
"A  c #53617E",
"S  c #54617C",
"D  c #54627C",
"F  c #56637D",
"G  c #56647E",
"H  c #556380",
"J  c #556481",
"K  c #566481",
"L  c #566482",
"P  c #566583",
"I  c #576583",
"U  c #596781",
"Y  c #586684",
"T  c #586785",
"R  c #5A6883",
"E  c #5A6884",
"W  c #5B6985",
"Q  c #5D6B87",
"!  c #5A6988",
"~  c #5B6A89",
"^  c #5C6B8A",
"/  c #5E6D89",
"(  c #5D6C8B",
")  c #5F6E8D",
"_  c #606F8E",
"`  c #61708F",
"'  c #63728F",
"]  c #627191",
"[  c #637290",
"{  c #627291",
"}  c #637392",
"|  c #647392",
" . c #657493",
".. c #677795",
"X. c #677696",
"o. c #687795",
"O. c #687897",
"+. c #697998",
"@. c #6A7A9A",
"#. c #6C7C9C",
"$. c #6D7D9C",
"%. c #6E7E9E",
"&. c #6F7F9F",
/* pixels */
"5 5 2 - =                                                     + - 2 2 - % o                                                     ",
"5 5 2 - o o                                                   = - 2 2 = o o                                                     ",
"5 5 5 > : = = = = = = = % = = % = = = = @ = = = = = = = = = = : 2 2 7 2 - = = % = = = = = = = % = = = % = = - $ = = = = = = = = ",
"5 5 9 w u i d i d d i d i d d d d d u k d d i d i d d u d d d u 7 w 7 7 u i k i d d i i u d d d d d d i d d i h i d i d d d d u ",
"5 5 w h M G U U R G U U E U U U R G R G U U U J U U U U U U S M k 9 9 d M G G R U U U U U U U U U U U U U U R G U U U U G U U U ",
"5 5 u m R ' o.O.o.O.X.X.o.o.o.o...X...o.o.o.X.X.o.o.o.o.o.o.' U Z u t Z U ] O.O.X.X.o.o.o.o.o.X.o.o.o.X.o.o...X.o.o.o.o.o.o.o.o.",
"5 5 i Z / +.&.&.&.$.#.#.+.&.#.#.$.#.#.#.&.o.#.#.#.#.#.#.&.&.o._ Z t w G _ O.&.&.&.#.#.#.#.#.#.#.#.#.#.#.#.&.+.#.#.#.&.&.#.&.&.&.",
"5 5 i Z / +.&.+.O.o.X.X.+.o.o.o.X.O.X.o.X.+.+.o.o.o.o.#.#.&.+.^ S u 9 Z _ O.&.$.#.X.X.+.X.X.o.o.o.o.o.X.o.X.+.X.o.o.o.+.#.&.&.&.",
"5 5 t S _ +.&.+.o.| ] ] ] ] ] ] ] ] ] ] ] ] ] ] ] ] ] X.#.&.o.Q Z u w G _  .$.O.o.' ' ] ] ] _  .] ] ] ] ] ] ]  .] _ ] o.+.#.&.&.",
"5 9 u S Q o.&.o.} ) ( ( ( ( ( ( ( ( ( ( ( ( ( ( ^ ^ _  .o.#.o._ S u u S ' +.$.o.| ' ^ / ( ( ^ ( ( ( ( ( ( ( ( ( ( ^ _ ] +.&.&.&.",
"2 2 w m G  . .' / Y J J J J J J Y Y L Y J J J J J J U ^  ._  .U n w 9 C G  . .' / J J J J J J J I I Y I J J S J J J I ( _ ] X.o.",
"- : : t m F K V M z z g j z c z b B M M z z z j g z n M F F V n u 2 2 w n G F S M m d z c g c c n B n n z z j z n j c M S U U U ",
"@ $ $ 2 7 t d t 7 7 4 5 5 5 7 w i g g i 7 4 5 5 5 5 5 5 t i d 7 2 & - 2 8 u u u w 5 5 5 5 4 7 7 f g g e w 7 7 7 7 7 7 7 t u g d ",
". . . o + % % % % + o % + + % = 2 w 7 2 = % % % % $ % % o = % + O . . . $ $ = $ $ % $ % % o % > 4 7 7 5 = % + + + + % o % = = = ",
"= = = = % = = % % = % = = = ; ; 5 > 5 > > = = % % = $ = = = - = & & & $ $ & & $ $ : % = % % = = ; 5 5 ; : = % = = = = = = = = + ",
"d i d i d d d g g u d d g i u u 7 7 7 7 t g g g u d d u d d i i h u h h u h h h d i u g u g g t w 7 7 w t u d d d u d d i d d d ",
"U E R G R G R R R U U R G R G m k 9 9 h Z G G R U U U U U U U U R G G R G Y R Y R G G R G R S M g w w h v G R R G R G R G G W G ",
"o.o.....o.o.o.o.....X...o.o.] U m i u m U ] o.o.o.o.o.o.o.o.X.X.O.o.O...O.....X.O.o.O.O.O.X. .Y b i i M W } ........O...O.o.O.+.",
"#.#.#.&.#.#.$.$.&.+.#.&.&.&.X./ S u u Z ) +.&.&.&.#.#.#.#.#.#.#.$.$.$.#.$.$.#.#.$.$.&.&.&.&.+./ A i i H / O.&.&.&.#.#.#.$.$.&.$.",
"o.o.X.X.........X.X.+.+.$.&.O./ S u h Z / o.&.$.#.X.o.o.+.X.X.X.O...O.......O.O.o.o.O.O.O.&.+./ A i w A / ..&.#.+...O.O.o.O.O.| ",
"] ] ] ] ' ] ] ] ] ] ] +.o.&.o._ S i u Z / X.&.+.X. ._ ] _  .] ] ' ' ] ] ` ] ] ] ' ] ] X.+.&.o./ Z 9 u S / O.#.#.X.] ] ] ' ] ] ] ",
"( ( ^ ^ / ^ ^ ) ( ^ ) ] +.#.o.^ Z u u S / +.&...] _ ^ ^ ( ^ ^ ( / ^ ^ ^ ^ ^ ^ ( / / ) } o.&.+./ Z k 9 S / +.#.+.] ) ! ) / / ^ _ ",
"^ ! ! ! ! ! ^ Y ! ! ! ] o.+.+.Q Z 9 i Z Q ' X.| _ ^ ! ! ! ! ! ! ! ! ^ W ! ! ! ! ^ W / ] X.o.o.^ Z i i S / ..+...] ^ ! ! ! ! W ^ ",
"! ! ! ! ! ! ! ^ ^ W ^ ) ] X.] Y Z i 9 x S R / / ^ ^ ! ! ! ! ! ! ! ! ! ! ! ! ! ^ Y ^ ^ )  .|  .Y z 9 i Z W ' | } ) ) ! ! ! ! ^ Y ",
"! ! ! ! ! ! ! ! ! ! ! ( ( ] _ J x w w a z n S J J ^ W ^ ! ! ! ! ! ! ! ! ! ! ! ! ! ! ^ ( _ _ ] J n e w c J _ ] _ W ^ W ! ! ! ! ! ",
"! ! ! ! ! ! ! ! ! ! ! ! ( ~ I H x w 9 9 w i g M S Y ! ! ! ! ! ! ! ! ! ^ ! ! ! ! ! ! ! ! ^ ^ Y B c w w c B K ^ ^ ^ ! ^ ^ ! ! ! ! ",
"Y Y L Y J J J J J J J J L J B z h 9 9 < 2 2 7 i c B J J J J J L H Y L Y J J J H J J J J J J B c u 7 5 g n B J J L L A S H J H H ",
"b b b b c z j j j j j j g n g u 9 - - - - : > 5 w g g z j j c c b B b B c c j j j j j g j j g u 5 > > 7 u g j g h z z z j j j j ",
"z z g i w 7 5 5 7 5 4 4 4 4 > > * % = o = + = : > 7 5 5 5 5 7 w i g g u e 7 7 5 7 5 5 4 5 5 4 > - - % = = 5 5 4 5 5 5 5 1 7 ; 0 ",
"w w 7 5 ; * % + + % + % + + + + X X   X o     o + o + + + + = = 5 7 7 5 ; + + + + + + + + + + o o     o + + % + + + + = % # # % ",
"5 5 5 ; ; - + = + = = % + = % = * % * % = % = = % + - - % > = : > 5 7 ; ; ; + * = % % = = % = = = = ; + % = = % + + ; + * + * * ",
"5 5 5 w w g g i u g g d d d i g i h i k g i g i g i i g u i u u w 5 7 w e e g g d d d d g u d g i g i g g g u g f g i i g g g i ",
"9 9 9 h v G R L R G R R Y W L L R G G R G R R L G R R R U U G M g w 9 k m G R G U U U U U U R U U G R R Y R G G R G R G R G R R ",
"9 9 i m W ' ....o.........O.....o.O.O...O.....X.O.O.| | o.X. .Y M i u m R ' O.O.o.o.o.o.o.o...| X...o.o...X.O.O.O.O.O.| o.o.o.o.",
"9 2 i S / ..&.&.&.&.&...#.#.#.#.$.$.$.#.$.#.#.#.$.$.&.&.&.&.+./ A i i A _ +.&.&.&.#.#.#.#.#.#.&.$.$.$.$.&.#.#.#.$.$.$.#.&.&.&.&.",
"9 9 u A / +.&.&.+.o.........O.O...O...O.....X.X.o.o.+.+.O.&.+./ Z w i S _ O.&.O.X.X.+.X.+.X.X.O.X.| O.| X.X.X.X.o.O.o.$.$.&.&.&.",
"5 5 9 S / +.&.+.o.} ' } ] ] ] ] ' ] ] ] ` ` ] ` ' ] ] O.+.&.X./ J i w S Q O.&.+.o. .]  .] ] ] ] } ] ] ] ] ] ] ] ] ] } O.O.&.&.&.",
"5 5 i S / O.#...} ) ^ / ^ ^ ) ( / ^ ^ / ) ) ^ ) / / ) ] +.&.+./ Z i i S Q O.&.+.] ( ^ ^ ( ( ( ( ) / ^ ^ ( ^ ^ ^ ( ^ ) ] O.$.&.&.",
"9 9 i S ^ ..#...) ( ^ W Y L L Y Y ! ^ ^ ! ! ! ! ! ^ ) )  .o.o.Q Z w i S / O.+.o.] ^ ! ! ! ! ! ! W ! ! ! ^ ! ! ! ^ T / ) } $.$.$.",
"9 9 9 Z Y ] } ] ) ( Y J Y b H Y L ! ^ Y ! ! ! ! ! W ^ ) ] o.] Y Z i 9 v R ' | ' _ ( ! ! ! ! ! ! ^ ! ! ! ! ! ! ! ! ^ ) / } | o.o.",
"2 9 w v L ) ) ) ( ! I J n c c B H Y ! ! ! ! ! ! ! ! ! _ ( _ _ J k w i m J _ _ _ ^ ! ! ! ! ! ! ! ! ! ! ! ! ! ! ! ! ! ! ^ ) ) ) } ",
"9 9 w v A W ( / Q E I J c f e z H Y ! ! ! ! ! ! ! ! ! ! _ ! I H k 9 9 v S I ! _ ! ! ! ! ! ! ! ! ! ! ! ! ! ! ! ! ! ! ^ ( ^ ( ( ( ",
"2 < 9 w j A J J J J J c f 7 7 g j H Y Y J Y J H J J J S J J V z w 9 9 i z H J J J J J J J J J L L I L L J J J J H J H J H H Y Y ",
"% - < 9 w g z j j j g e 4 ; > 7 g c b b c j j j z g n z g z g u w 2 2 9 w g j j g j z j j j c n c B B B c j j g j j j j j j j j ",
"% = % - < 5 5 5 5 5 > = ; = + 5 w g g i e 7 5 5 7 7 2 7 2 w 2 - * % % - > 5 5 5 5 5 4 4 4 4 5 7 g g g e w 7 5 4 4 4 4 4 5 5 5 5 ",
"      o o % o # % % + + o   + = ; 7 7 5 ; % % + + o + + + o % @ X X o   o + + +   % % % + o % : 4 5 7 5 = % % % + + + + # #   # ",
"& = = = ; + % % = = = = = + - - 2 5 5 ; ; ; + * = = = = % % = % % ; % > + = = = = % : = % = = > > 5 5 > : : % % % % % = ; & * * ",
"g f g i i g i g i u g g i g i w w 5 7 7 w i g s d d i g i g i i h i i i i g d d g g u d u g g 7 w 7 7 7 u u g d d f f f u u s g ",
"Y U U U Y R Y G R G G R G G U C h w w h v G Y G R G R R L W R R R G G R G Y W L W G R G G R G A g w w g Z S G G W G G R G G W G ",
"o.o.o.o.........o.O.O...O.O.' G Z w w Z R } ........O.......X...O...O...O...X.............} ' W M i i M W ] O.O.O...O...+.O.O.+.",
"O.&.#.#.#.#.#.#.$.$.$.#.&.$.#.' Z a w Z / O.&.&.$.$.$.#.#.#.#.#.$.$.&.#.$.#.#.#.$.#.#.&.&.&.+./ Z i i A / +.&.&.&.#.#.#.$.$.$.&.",
"O.X.X.X...O...X.O.o...$.&.&.X.Q Z a a Z / ..&.&.+.O.O.....O.X.O.............X.X.+.....#.#.&.O./ Z i i Z / X.&.+.#....... .o.O. .",
"' ] ] ] ] ] ] ] ] ] ] X.O.&.O._ Z w a Z ^ #.#.#.O.} ] ] ] ] ] ] ' ] ] ] ` ` } ` ' ] } ....&.O./ Z i h Z / ..+.&.X.] ] ` ' ' ] ] ",
"/ ) ^ ^ ( ^ ^ ^ ( / ) ]  .&.O.Q A i i A / O.#.O.| / ^ ^ ( ( ^ ^ / ^ ( / ! ) ) ) / / ) ] ..&.O./ Z i w A / +.&...] ) / ) _ Q W _ ",
"^ ^ Y ! ^ ! ! ! ^ ! ) ] O.O.o.Q Z i i Z / ..#.} ' ^ U ! ^ ! ! ! ! ! ^ T ! ! ! ! ^ W ) ) } #...^ M i i Z / X.O...] ^ ! ! ! ! ^ W ",
"Y ^ ^ ! ! ! ! ! ! ! W ) ' ..' U m i w m R ] } } ' ^ ^ W ! ! ! ! ! ! ! ^ ! ! ! ^ Y ^ ^ ) ] ..} T M i w b W ' ..] ) ^ ! ! ! ^ Y ^ ",
"! ! ! ! ! ! ! ^ ! ! ^ ^ ) ) ) H v i 0 v J ) ) ) ( ^ ! ! ! ! ! ! ! ! ! ! ! ! ! ! ! ! ! ^ ( ` ) A v i w v J ) ) ) ) ^ ! ! ! ! ! ! ",
"! ! ! ^ ! ! ! T ! ! ^ ^ ( ^ Y A z r i j A T ^ ^ ^ ! ! ^ ! ! ! ! ! ! ^ ^ ! ! ! ! ! ^ ! ^ ( ^ Y H j w i z H Y ^ ^ ! ! ! ^ ! ! ! ! ",
"H Y Y ! L Y L ^ L Y L Y Y Y J b h 0 0 h v J Y L P Y Y Y J Y Y Y Y Y Y Y Y ! Y L Y Y Y Y Y P J b h 0 w h z J Y Y L Y Y Y J ! ! J ",
"V b b A b b A b b A A b A b b j s r 0 i z b V V b b b A B B A b b b b A c b H b V V b A V V b j i 0 0 i j b A B A b b b b H b b ",
"c j h j j j h z h j h j h j h i 0 0 0 r i h h j c j j j j h z z h z j j j j j h j z h j z j h i i 0 0 0 i h z z z j h j c j j j ",
"0 i e 0 w 0 w w w w w 9 w w 0 0 0 9 0 0 0 r 0 0 0 e i 0 e w 0 w w w 0 w e 0 e w w 5 w w 0 0 w 5 0 0 0 0 0 0 w 0 0 w w 0 7 w w 0 ",
"5 9 0 0 5 5 5 5 0 0 5 5 5 5 0 0 9 9 9 0 0 0 5 9 5 9 0 1 5 5 5 5 0 5 5 5 5 5 0 9 5 5 5 5 0 0 5 5 9 5 9 9 5 5 5 9 0 9 5 5 5 9 0 0 ",
"9 0 < 9 5 5 5 5 9 9 5 5 5 9 9 0 1 9 9 < 9 9 9 1 9 5 9 0 5 5 5 5 5 5 5 5 5 5 5 5 5 5 5 9 5 9 5 5 5 9 0 2 5 5 5 9 2 9 5 5 5 5 5 0 "
};
