/* XPM */
static char *_a381f3f22a94436e35e4ac949e5af60Mww8IkaWqo0ymCfT[] = {
/* columns rows colors chars-per-pixel */
"64 64 130 2 ",
"   c None",
".  c black",
"X  c #050503",
"o  c gray4",
"O  c #0B0B0B",
"+  c gray5",
"@  c #141308",
"#  c #111111",
"$  c gray8",
"%  c #151515",
"&  c #161616",
"*  c #191919",
"=  c gray10",
"-  c #1D1D1D",
";  c gray12",
":  c gray13",
">  c #222222",
",  c gray15",
"<  c #272727",
"1  c #282828",
"2  c gray16",
"3  c #2A2A2A",
"4  c #2D2D2D",
"5  c #323232",
"6  c gray20",
"7  c #343434",
"8  c #353535",
"9  c gray21",
"0  c #373737",
"q  c gray22",
"w  c #393939",
"e  c #3A3A3A",
"r  c gray23",
"t  c #3E3E3E",
"y  c #3F3F3F",
"u  c #443C1A",
"i  c gray25",
"p  c #434343",
"a  c #444444",
"s  c #464646",
"d  c gray28",
"f  c gray29",
"g  c #4B4B4B",
"h  c #4C4C4C",
"j  c gray30",
"k  c #4E4E4E",
"l  c gray31",
"z  c #505050",
"x  c gray32",
"c  c #535353",
"v  c gray33",
"b  c #555555",
"n  c #565656",
"m  c gray34",
"M  c #585858",
"N  c gray35",
"B  c #5A5A5A",
"V  c #5B5B5B",
"C  c gray36",
"Z  c #5D5D5D",
"A  c gray37",
"S  c #606060",
"D  c gray38",
"F  c #626262",
"G  c gray39",
"H  c #656565",
"J  c #676767",
"K  c #686868",
"L  c DimGray",
"P  c gray42",
"I  c #6C6C6C",
"U  c #6D6D6D",
"Y  c #727272",
"T  c gray46",
"R  c #767676",
"E  c #777777",
"W  c gray47",
"Q  c #797979",
"!  c #7B7B7B",
"~  c #7C7C7C",
"^  c #F77622",
"/  c #F77722",
"(  c #F77623",
")  c #F87523",
"_  c #F87622",
"`  c #F77823",
"'  c #F77B25",
"]  c #F87F27",
"[  c #F88229",
"{  c #F8852A",
"}  c #F9852A",
"|  c #F8862B",
" . c #F99031",
".. c #F99B37",
"X. c #F9A039",
"o. c #FAA03A",
"O. c #FAA23B",
"+. c #BBAA48",
"@. c #FBB444",
"#. c #FCBD49",
"$. c #FCBD4A",
"%. c #FCCC52",
"&. c #EBD55A",
"*. c #FDD959",
"=. c #FDD95A",
"-. c #F9E35F",
";. c #818181",
":. c #838383",
">. c #848484",
",. c #898989",
"<. c gray54",
"1. c #8B8B8B",
"2. c gray55",
"3. c #909090",
"4. c #929292",
"5. c gray58",
"6. c #979797",
"7. c #9B9B9B",
"8. c gray61",
"9. c #9D9D9D",
"0. c gray62",
"q. c gray63",
"w. c gray64",
"e. c #A7A7A7",
"r. c #ACACAC",
"t. c gray71",
"y. c #B7B7B7",
"u. c gray72",
"i. c #B9B9B9",
"p. c #C5C5C5",
/* pixels */
"                                                                                                                                ",
"                                                                                                                                ",
"                                                                                                                                ",
"                                                                                                                                ",
"                                                                                  ) )                                           ",
"                                                                                ) / / )                                         ",
"                                                                                ) / / _                                         ",
"                                                                                  ) _ /                                         ",
"                                                                                        ` _ / / / / )                           ",
"                                                                                        _ _ / / / / / )                         ",
"                                                                                        | | [ ] ' ( / /                         ",
"                                                                                        ..O... .| ' / /                         ",
"                                                                                        $.$.@.O. .] / /                         ",
"                                                                                        *.*.%.@...[ / /                         ",
"                                                                                        &.-.*.$.O.[ / )                         ",
"                                                                                        +.&.*.$...| )                           ",
"                                                                                  . @ u                                         ",
"                                                                                . . X @                                         ",
"                                                                                . . . .                                         ",
"                                                                                . . .                                           ",
"                                                  . . . . . . . . . . . . . . .                                                 ",
"                                                . . . . . . . . . . . . . . . .                                                 ",
"                                                O O O + O O O O + + O O O O + O                                                 ",
"                                              $ * ; : : : : : , : : : : : : ; * $                                               ",
"                                          . O * 1 5 0 q q q q q q q q q q q 5 1 * O .                                           ",
"                                        . . O ; 5 a k k z z z z z z z k k k a 5 ; O . .                                         ",
"                                        O O * 4 a B H D D Z Z B Z C B B B B k q 1 $ O O                                         ",
"                                      $ * ; 4 a D Q :.T L D Z Z Z Z Z B B B v a 0 1 ; ; $                                       ",
"                                  . O * 1 5 a D ~ 6.0.<.T H B Z C C Z B B B v z d y 0 1 ; O .                                   ",
"                                . . O ; 5 a B Q 6.t.t.0.>.L Z Z C C C C B B B B v z a 0 ; + . .                                 ",
"                                . . + , i B Y <.q.i.i.0.:.L B B C C C C C C B Z Z C z q : O . .                                 ",
"                                . . # 5 v T <.4.7.q.0.2.Q H Z Z C C C C C C C C Z Z z q : O . .                                 ",
"                                . . $ y L 4.q.0.6.2.:.Q U D B Z C C C C C C C C B Z z q : + . .                                 ",
"                                . . * g Q e.i.w.<.T L H D Z Z Z C C C C C C C C Z Z z q : + . .                                 ",
"                                . . * z >.i.p.e.<.L Z B Z Z Z B C C C C C C C C Z B z q : O . .                                 ",
"                                . . * z >.i.p.e.<.U Z B Z Z Z B C C C C C C Z B B B z q : + . .                                 ",
"                                . . * z >.i.p.e.<.L Z Z B Z Z Z C C C C C C C B B B k 0 : O . .                                 ",
"                                . . * k >.i.p.e.>.U B Z Z Z B Z C C C C C C B B B v k 0 : O . .                                 ",
"                                . . * g ~ r.i.0.:.L Z Z Z B Z B C B B Z B B Z B B B g 0 : O . .                                 ",
"                                . . $ i H 4.0.<.Q H Z B Z B Z Z B B B B B B B B B v g 0 : O . .                                 ",
"                                . . # 0 v Q >.Q U D Z Z B Z Z B B B M B B B M M M v k 0 : O . .                                 ",
"                                . . + 1 i Z L H D Z Z Z B Z B B B B B v B B v B v B g 0 : O . .                                 ",
"                                . . + : q z B Z Z B B B Z B B B B B v B B v B v v B h 0 : O . .                                 ",
"                                . . O : q k B B B B B B B B B B M v B v v B v B B v g 0 : O . .                                 ",
"                                . . O : q k B B B B B B B B B B M v B v B v B v v B g 0 : O . .                                 ",
"                                . . O : q k B v B v v B v B v B v B v B v B v B B v k 0 : O . .                                 ",
"                                . . O ; 5 i k k z B B v B v B v B v B v B v v z k k i 5 ; O . .                                 ",
"                                  . + * 1 5 y i g v v B v B v B v B v B v B v k i y 5 1 * O .                                   ",
"                                      $ * : , 0 i k v B B v B v B v B v v B z a 0 , ; * $                                       ",
"                                        O O $ , y k B v v v v B v B v v B v k q , $ O O                                         ",
"                                        . . O ; 5 i g k g g k g k k g g k g a 5 ; O . .                                         ",
"                                          . O * 1 5 0 0 0 0 0 0 0 0 0 0 0 0 5 1 * O .                                           ",
"                                              $ * ; : : : : : : ; : : : : : ; * $                                               ",
"                                                O O O O O O O O O O O O O O O O                                                 ",
"                                                . . . . . . . . . . . . . . . .                                                 ",
"                                                  . . . . . . . . . . . . . .                                                   ",
"                                                                                                                                ",
"                                                                                                                                ",
"                                                                                                                                ",
"                                                                                                                                ",
"                                                                                                                                ",
"                                                                                                                                ",
"                                                                                                                                ",
"                                                                                                                                "
};
