/* XPM */
static char *_f4af1422391462ed690e2018158ec84xxQE7usPp3PoKjLu[] = {
/* columns rows colors chars-per-pixel */
"64 64 35 1 ",
"  c black",
". c gray1",
"X c gray3",
"o c gray5",
"O c gray7",
"+ c gray9",
"@ c gray15",
"# c #353535",
"$ c gray23",
"% c #3C3C3C",
"& c gray25",
"* c #444444",
"= c #484848",
"- c gray31",
"; c #505050",
": c gray34",
"> c gray35",
", c #5F5F5F",
"< c #606060",
"1 c gray40",
"2 c #6A6A6A",
"3 c #6D6D6D",
"4 c #717171",
"5 c gray46",
"6 c #7B7B7B",
"7 c gray49",
"8 c #818181",
"9 c gray53",
"0 c #898989",
"q c gray56",
"w c #909090",
"e c gray58",
"r c #9A9A9A",
"t c gray62",
"y c gray63",
/* pixels */
"                                                                ",
"                                                                ",
"   XoOO+++O+O++O++O+++O+O++O++O+++O+O++O++O+++O+O++O++O+++OXX   ",
"  X+@#%%%%%%%%%%%%%%$%%%%%%%%%%%$%%%%%%%%%%%$%%%%%%%%%%%$%#@+X  ",
"  o@&>1111111111111111121111111111111111111111111111111111>%@o  ",
"  O#>7qqqqqqwwqqwwwqqqqwwwwwqwwwqqwwwwqqwwqqqqqwwwwwqqqqww7>#+  ",
"  +%1qytreeeeeeeweeeeeeeereeereeerreererreererreereeerrryyq1%O  ",
"  +$1qte08666666666666668788888878788878788878878888888qetq2%+  ",
"  +%1qr061<<,,,,<<,,,,<111221221222112122212212222222247qtq1%O  ",
"  O%1qr71-*&*****&*****=--;;;;;:;;;;:;;;;;;;;;;;;;;;;;>48rq1%+  ",
"  O%1qe6<*#$#$#$#$#$$#$%%**=**********=*==-==--==-==**;28ew1%O  ",
"  +%1qe6,*######$%%%$$%&&***=**==*=***=-;::>:>:>>::;-=;17rw1%+  ",
"  +%1qe6,*#$#$#$%&&&&%&*******=****=**=;><11111111<>;=;28rq1%+  ",
"  +%1qe6,*#####$%&*&*********=**=***=*=:<3444444443<:-;27eq1%+  ",
"  O%1qe6,*###$$%&*********=******=*=*=->246565656541:=;18rq1%O  ",
"  +%1qe6,*#$$%%%***=***=*=***=*=******=>145656565641:-;28ew1%+  ",
"  O%1we6,*#$$%&&**=******=*=*****=****=:146565656541:=;28eq1%O  ",
"  +%1we6,*$$%&*******=*=****=*********->145656565641>=;28rq1%+  ",
"  +%1qe6,*$%&&********====-==-==-====*-:146565656541>-;27ew1%O  ",
"  O%1qe6,*#%&**=*=*=**==;;;;:;;:;:---==:145656565641>=;18rq1%+  ",
"  +%1qe6,*$%&*******=*=;;>,,,,>,,,>;;=->146565656541>=;28rq1%+  ",
"  +%1qe6,*#%&**=*=*=**=;,<11111111<>;==>145656565641:-;27eq1%+  ",
"  O%1qe6,*$%&&**=*****-;>1222223222,;==:146565656541:-;18rq1%O  ",
"  +%1qe6<*#%&**=***=**=:,1332223221,:=->145656565641>=;28ew1%+  ",
"  +$1qe6,*$%&***=*=*=*-:,1323222231,;==>146565656541:-;28eq1%O  ",
"  +%1qe6,&$%%*********=;>1322232221,;-->145656565641>=;17rq1%+  ",
"  O%1qe71*$%*=**=*===*=:,1222323331>;==>146565656541:=;28rq1%O  ",
"  +%1qr81-*===----=-=*=;,1232322221,:-=:145656565641:-;28eq1%+  ",
"  O%1we83:-----;;;--=*=:>1232232221,;=-:146565656541>=;28rq1%+  ",
"  +%1wr94,:::::::::--==:,1232322221,:==:145656565641:-;27eq1%+  ",
"  +%1qr95<>>:>>>>>:;===;,1222233231>;--:146565656541:=;18rq1%O  ",
"  O%1qr95<>>>>>>>>:--*=:>1323222221,:==>145656565641:-;28ew1%+  ",
"  +%1qr95<>>>>>>>>:;-==:,1222223321,;=-:145656565641:=;28eq1%O  ",
"  +%1qr951>>>>>>>>:;===;>1333322321>:==:146565656541:-;28rq1%+  ",
"  O%1qr95<>>>>>>>>:--*=:,1222232221,;=-:145656565641:=;27ew1%O  ",
"  +%1qr951>>>>>>>>:--==:,1322322231,:-=:146565656541:-;18rq1%+  ",
"  +$1qr95<>>>>>>>>:;-*=;>1222233221,;=-:145656565641:=;28rq1%+  ",
"  +%1qr95<>>>>>>>>:;-*=:,1233222221,:==:146565656541:-;27eq1%+  ",
"  O%1qr95<>>>>>>>>:;-*-;,1233222231>;--:145656565641>-;18rq1%O  ",
"  +%1qr051>>>>>>>>:;-*=;,1222233221,:==>146565656541:=;28ew1%+  ",
"  O%1wr95<>>>>>>>>:;-*-;,1222322331,;-=:145656566541:-;28eq1%O  ",
"  +%1wr95<>>>>>>>>:;===:>1232232221>:=-:146565655641>=;17rq1%+  ",
"  +%1qr951>>>>>>>>:;-==:,1233322221,;==:145656566541:=;28rq1%O  ",
"  O%1qr95<>>>>>>>>:-===;,1222223221,:=->146565655641:-;28eq1%+  ",
"  +%1qr95<>>>>>>>>:;-==:,1222223321,;=-:145656566541>=;28rq1%+  ",
"  +%1qr951>>>>>>>>:;===;>1233322321>;-=>146565655641:-;27eq1%+  ",
"  O%1qr95<>>>>>>>>:;-=-;,1232232221,:=->145656566541:=;18rq1%O  ",
"  +%1qr95<>>>>>>>>>;=*=:,1222322231,;==>146565655641:-;28ew1%+  ",
"  +$1qr95<>>>>>>>>:;-*-;,1222233221>:==>146565656541:=;28eq1%O  ",
"  +%1qr95<>>>>>>>>:;-*=;,1323222331,;=-:145656565641:-;28rq1%+  ",
"  O%1qr951>>>>>>>>>;-*-:,1223222221,:=-:146565656541>=;17ew1%O  ",
"  +%1qr95<>>>>>>>>:;===;,1232233231>:==>145656565641:-;28rq1%+  ",
"  O%1wr95<>>>>>>>>>;-==;>1223222221,:==:146565656541:=;28rq1%+  ",
"  +%1wr95<>>>>>>>>:;===:,1323233321,;=-:145656565641:-;17eq1%+  ",
"  +%1qrq72<1<1<<<<<>>::>134444545431,:><357777777763<:>49rq1%O  ",
"  O%1qtw975555555554223457888787877542347990900009875347qrw1%+  ",
"  +%1wtrwq9999999998888900qqqqqqqqq09889qqweweweewqq088qetq1%O  ",
"  O%1wyttrrrrrrrrrrrererrrrtrrrtrrrrerrrrttttttttttrrertyyq2%+  ",
"  O#>7wqqqqqqqqqqqwwwwwqwwqqqqwwwqqqqqqqqqwwwwqqqqqqwqwwqq7>#O  ",
"  o@&>1111111111111111111111111111111111111111111111111111>%@o  ",
"  X+@#%%%%%$$%%%%%%%%%%$%%%%%%%%%%%$%%%%%%%%%%%$%%%%%%%%%%#@+X  ",
"   XoO+O+O++O+O+O++O+O+++O++O++O+O++O+O+O++O+O+++O++O++O+O+oX   ",
"                                                                ",
"                                                                "
};
