/* XPM */
static char *_ac30932a05349528939834deb856fb7e17NoSJhK7UEv5cK[] = {
/* columns rows colors chars-per-pixel */
"64 64 188 2 ",
"   c None",
".  c #040406",
"X  c #060608",
"o  c #090709",
"O  c #0C0A0C",
"+  c #14090B",
"@  c #1A0B0D",
"#  c #110708",
"$  c #100F12",
"%  c #1A0F11",
"&  c #141215",
"*  c #191215",
"=  c #161519",
"-  c #18171A",
";  c #191A1D",
":  c #260D0D",
">  c #2D1012",
",  c #26191B",
"<  c #3B1415",
"1  c #311013",
"2  c #250E10",
"3  c #1D1F21",
"4  c #232326",
"5  c #28272A",
"6  c #2B2A2D",
"7  c #26272B",
"8  c #3F2124",
"9  c #3B282C",
"0  c #3C2E27",
"q  c #2E2D32",
"w  c #342F34",
"e  c #363439",
"r  c #39373C",
"t  c #393A3E",
"y  c #353337",
"u  c #421617",
"i  c #451618",
"p  c #421A1C",
"a  c #551B1B",
"s  c #621E1E",
"d  c #461E20",
"f  c #651F21",
"g  c #4B2022",
"h  c #4A2C30",
"j  c #4F2F32",
"k  c #662223",
"l  c #6D2121",
"z  c #6B2729",
"x  c #792525",
"c  c #683F27",
"v  c #643336",
"b  c #7A3233",
"n  c #3D3D42",
"m  c #403F44",
"M  c #4F3B40",
"N  c #5E3F43",
"B  c #3C4247",
"V  c #3E454A",
"C  c #404043",
"Z  c #4C484E",
"A  c #46464B",
"S  c #55494D",
"D  c #4E4C52",
"F  c #474C51",
"G  c #524E54",
"H  c #584B51",
"J  c #4B5156",
"K  c #555157",
"L  c #57555B",
"P  c #5B575D",
"I  c #595859",
"U  c #55585A",
"Y  c #6B494E",
"T  c #70625D",
"R  c #5B5B62",
"E  c #5D646B",
"W  c #5D6164",
"Q  c #636365",
"!  c #666469",
"~  c #68646B",
"^  c #79676E",
"/  c #636E75",
"(  c #6B6B73",
")  c #746F77",
"_  c #6D747B",
"`  c #677078",
"'  c #77747A",
"]  c #7A767E",
"[  c #862929",
"{  c #8D2929",
"}  c #802424",
"|  c #962C2D",
" . c #9C2E2F",
".. c #953435",
"X. c #A33131",
"o. c #AC3232",
"O. c #A73B3D",
"+. c #A32F2F",
"@. c #955027",
"#. c #AD423B",
"$. c #BA533B",
"%. c #BF5B32",
"&. c #C35E36",
"*. c #C26127",
"=. c #CE6C33",
"-. c #8B3E40",
";. c #8A4549",
":. c #9D4E52",
">. c #82565A",
",. c #9A575B",
"<. c #9A5458",
"1. c #97494C",
"2. c #A24445",
"3. c #B74D4A",
"4. c #A75D48",
"5. c #A15351",
"6. c #B25455",
"7. c #8B604F",
"8. c #B1674D",
"9. c #B9714B",
"0. c #B46B59",
"q. c #945F64",
"w. c #936167",
"e. c #97696B",
"r. c #9F7064",
"t. c #8D6D74",
"y. c #89757C",
"u. c #8E7879",
"i. c #93777E",
"p. c #A7716B",
"a. c #CB7F7F",
"s. c #C37872",
"d. c #AD8177",
"f. c #7C7A83",
"g. c #797F88",
"h. c #837E87",
"j. c #8B7B83",
"k. c #7B858B",
"l. c #86848D",
"z. c #8E8E8F",
"x. c #88858E",
"c. c #838A93",
"v. c #8B8A92",
"b. c #8F8790",
"n. c #8D919B",
"m. c #86939C",
"M. c #98979C",
"N. c #948890",
"B. c #A59794",
"V. c #8898A1",
"C. c #929CA5",
"Z. c #9B9BA3",
"A. c #BB9DA0",
"S. c #95A2AB",
"D. c #9AA2AB",
"F. c #98A7B1",
"G. c #9BACB6",
"H. c #9DAEB8",
"J. c #A2A2A2",
"K. c #ADADAE",
"L. c #A4A3AA",
"P. c #ACADB4",
"I. c #A3B3BC",
"U. c #A9B3B9",
"Y. c #B5A8AD",
"T. c #C49798",
"R. c #C88585",
"E. c #CFA29E",
"W. c #DCBABA",
"Q. c #E0B2B2",
"!. c #A7B7C0",
"~. c #A9B9C1",
"^. c #B9BBC1",
"/. c #B9C4CB",
"(. c #C5C5C5",
"). c #C9C8CC",
"_. c #D7C9CA",
"`. c #C0CCD2",
"'. c #D7DADC",
"]. c #CFD4D8",
"[. c #D9E0E4",
"{. c #E1E1E1",
"}. c #EBECEC",
"|. c #E5E6E8",
" X c #F5E5E5",
".X c #F1EBEC",
"XX c #F2F5F6",
"oX c #FBFBFB",
/* pixels */
"                                        X X X X X X X X X X X X                                                                 ",
"                                        X X X X X X X X X X X X                                                                 ",
"                                        X X o # @ @ @ @ % @ @ @                                                                 ",
"                                        X X O @ > < i i i i < 1 >                                                               ",
"                                        X X @ > i f l l l l f a < @ X                                                           ",
"                                        X X @ < f } .. .|  .[ f u @ X X                                                         ",
"                                        X X @ < f [ | ..X.O...z p @ X X                                                         ",
"                                          X @ < a f z [ -.:.;.v 8 * X X o                                                       ",
"                                              > < i d v Y >.>.N 9 * X X X X X X X X X X X X X                                   ",
"                                                @ @ , h Y ^ ^ H w & X X X X X X X X X X X X X X                                 ",
"                                                & & 4 n R ' ) R C 7 ; ; ; ; ; ; 3 ; ; ; ; ; ; ;                                 ",
"                                              4 6 e n H ! f.f.~ R F V V V V V V V V V V V V B B q                               ",
"                                          X & 6 n D R ~ ) f.h.f._ ` / / / / / / / / / / / / / V B ; .                           ",
"                                        X o & w D ~ ) ] h.h.h.l.n.m.V.V.V.V.V.V.V.V.V.V.V.V.k.E B = X .                         ",
"                                        = = 4 m R f.h.h.h.x.v.n.C.F.G.G.G.G.G.H.G.G.H.G.H.G.V./ V ; X X                         ",
"                                      4 q w m R ( x.n.n.n.n.n.C.S.G.G.G.G.H.H.G.G.G.G.H.G.H.V./ V 3 X X                         ",
"                                  X & 6 m D R ( g.n.C.C.C.C.C.S.G.G.G.G.G.G.G.G.H.G.H.H.G.G.V./ V ; X X                         ",
"                                X X & y D ~ ] l.V.C.F.F.F.F.G.G.G.G.G.G.G.G.G.G.G.H.H.H.G.G.V./ V ; X X                         ",
"                                X X = e L ' v.n.C.F.H.!.!.~.~.!.!.!./.!.~.~./.!.~.!.~.~.~.~.C._ F ; X X                         ",
"                                X X - t R k.n.C.S.H.H.~.~./.`.`././.`.`././././.`././.]././.U.k.J 3 X X                         ",
"                                X X ; n E c.C.S.F.F.!.~.`.'.[.[.[.[.[.[.[.[.[.[.[.[.[.[.[.[./.z.U 3 X X                         ",
"                                X X ; V / m.F.F.G.H.!./.'.}.XXXXXXXXXXXXXXXXXXXXXXXXXXXXXXXX'.M.W 4 X X                         ",
"                                X X ; V / V.H.G.H.H.!.`.[.XXoXXX}.}.[.[.{.{.{.{.{.{.[.{.{.{.(.z.I 4 . X                         ",
"                                X X ; V / V.G.G.H.H.!./.[.XXXX'.(.K.J.J.J.J.J.J.J.J.J.J.J.J.z.T B - . X                         ",
"                                X X ; V / V.G.H.H.H.!./.[.XX}.(.J.' Q Q Q Q Q Q Q Q Q Q Q Q I C 6 & X X                         ",
"                                X X ; V / V.G.G.H.H.~.`.[.XX|.K.' C 4 4 5 4 5 4 5 4 4 4 4 5 3 ; & O X X                         ",
"                                X X ; B / m.F.G.H.H.~./.[.XX{.Y.' C 4 4 4 4 4 ; $ O O & ; 3 4 ; & X X X                         ",
"                                X X ; n E c.C.C.F.H.~.`.[.XX}.(.J.' Q Q Q Q I C 6 $ & 5 C I I C 6 & X o                         ",
"                                X X = n R g.n.C.S.F.!.`.[.XXXX'.(.K.J.J.J.J.z.Q C ; ; C ! z.z.! C ; . X                         ",
"                                X X = e L ' v.n.C.F.!.`.[.XXoXXX}.{.{.{.{.{.(.z.U 4 3 I z.(.(.z.I 3 X X                         ",
"                                X X & q F ! f.k.V.C.I./.].|.XX}..X X X X X X_.B.T 0 h T B._._.z.I 4 X X                         ",
"                                X X $ 4 e Z R ( g.n.Z.U.^.)._._.W.W.Q.Q.Q.Q.E.d.7.c c 7.d.E.E.e.S 3 X X                         ",
"                                X X O - 4 q m L f.h.n.Z.L.Y.Y.E.T.R.a.a.a.a.p.0.4.@.@.4.0.p.p.>.j , X X                         ",
"                                X o o O $ & 4 m L f.h.j.N.M.j.j.0.8.3.3.3.3.3.$.%.*.*.%.&.3.2.b g * X X                         ",
"                                X X X X o X & w H ^ j.j.j.j.t.q.:.2.O.O.O.O.#.&.&.=.=.%.$.#...z p @ X X                         ",
"                                  X X o X X & 9 N T q.q.q.q.q.q.,.<.:.:.:.:.5.6.8.9.9.8.4.5.;.v 8 @ X X                         ",
"                                      X o X & 8 v -.:.:.:.:.:.,.,.q.w.q.w.w.w.e.r.r.r.r.w.q.>.N 9 * X X                         ",
"                                        o o @ d l -.O.O.O.O.2.:.w.t.y.y.y.y.y.u.u.i.d.y.y.j.^ H y & X X                         ",
"                                        + o @ p x -.O.O.O.O.2.,.e.j.l.l.x.x.x.x.h.b.x.h.x.x.f.K e = X X                         ",
"                                      d 2 O * d v -.:.:.:.:.,.e.j.b.n.n.n.v.n.n.n.n.n.n.n.n.g.R t - X X                         ",
"                                  o.{ s 1 @ & 9 N >.q.q.q.q.e.j.N.C.C.C.C.C.C.C.C.C.C.C.C.C.k.E B - X X                         ",
"                                o.o.| k < @ = w H ^ j.y.y.j.h.b.M.C.F.Z.F.F.F.F.F.F.F.F.F.F.V./ B ; X X                         ",
"                                o.o. .l i @ = e K ) h.h.h.h.h.l.m.V.V.V.V.V.V.V.V.V.V.C.S.F.m./ B - X X                         ",
"                              o.o.o.| l i @ & e L ) h.h.h.h.f.f._ ` / / / / / ` / / ` g.c.V.k.R n ; X o                         ",
"                          o.o.o.o.o. .l i @ = e K ) h.h.h.h.f.~ R F V V V V V V V V J R g.k.f.R t = X X                         ",
"                        o.o.o.o.o.o.| l i @ = y K ) h.h.h.h.) R m 7 ; ; ; ; ; ; ; ; 7 n R f.f.K e = X X                         ",
"                        o.o.o.o.o.o.| l i @ = w K ) h.h.f.) ! H w , @ + O o o O $ & 4 e D ~ ~ Z q = X X                         ",
"                        o.o.o.o.o.o.| l i @ = e K ^ ] ) ! P H M h d < 1 @ # O ; 4 q n n A G D n 7 $ . .                         ",
"                        o.o.o.o.o.o.| l i @ = e K ) ] ! G m w h j z f i 1 # $ 4 e Z G A m r w 5 ; O .                           ",
"                        o.o.o.o.o.o.| l i @ & e K ) ' L n 4 , d f [ } s < @ & q Z ! ~ G r 3 & $ $ o                             ",
"                         .+.X.+.+.+.{ s < @ * w Z ~ ~ Z w & @ u f | { f < % & q Z ! ~ Z w = X . X                               ",
"                        x { { | { { x a 1 + O 4 e Z Z t 5 $ + < a } x a 1 + $ 4 e Z D r 5 $ . . .                               ",
"                          s s l l l a < 2 O O = 4 w w 5 ; O # > i s a < 2 o O ; 4 w w 5 3 O . .                                 ",
"                                    : @ o O X O $ & = $ O X         : @ O o o O $ $ = $ O X                                     ",
"                                      . . X . X . . X . .             . . . X X . . . . .                                       ",
"                                      . . . . X . . . . .             . . . . X . . . . .                                       ",
"                                        . . . . . . . .                 . X . . . . . .                                         ",
"                                                                                                                                ",
"                                                                                                                                ",
"                                                                                                                                ",
"                                                                                                                                ",
"                                                                                                                                ",
"                                                                                                                                ",
"                                                                                                                                "
};
